<?xml version="1.0" encoding="utf-8"?>
<!-- Generator: Adobe Illustrator 25.2.3, SVG Export Plug-In . SVG Version: 6.00 Build 0)  -->
<svg version="1.1" id="Слой_2" xmlns="http://www.w3.org/2000/svg" xmlns:xlink="http://www.w3.org/1999/xlink" x="0px" y="0px"
	 viewBox="0 0 434.04 436.09" style="enable-background:new 0 0 434.04 436.09;" xml:space="preserve">
<style type="text/css">
	.st0{fill:#002394;}
</style>
<path class="st0" d="M239.91,27.94h-168c-24.2,0-44,19.8-44,44v247c0,24.2,19.8,44,44,44H192.3c-8.06-16.81-12.57-35.65-12.57-55.53
	c0-13.78,2.16-27.06,6.19-39.51H71.81c-6.64,0-12.07-5.44-12.07-12.08c0-3.32,1.36-6.34,3.55-8.52c2.18-2.19,5.2-3.55,8.52-3.55
	h124.75c3.34-5.87,7.13-11.44,11.32-16.68h-35.95V120.26c0-6.6,5.4-12,12-12h40.34c6.6,0,12,5.4,12,12v80.58
	c14.13-9.59,30.26-16.43,47.64-19.78V71.94C283.91,47.74,264.11,27.94,239.91,27.94z M139.91,227.07H75.57v-43.49
	c0-6.6,5.4-12,12-12h40.34c6.6,0,12,5.4,12,12V227.07z"/>
<path class="st0" d="M307.74,201.03c-58.57,0-106.04,47.06-106.04,105.1c0,58.04,47.47,105.09,106.04,105.09
	s106.04-47.06,106.04-105.09C413.77,248.09,366.31,201.03,307.74,201.03z M352.55,308.34c0,7.65-6.27,13.92-13.92,13.92h-15.81
	v15.81c0,7.65-6.27,13.92-13.92,13.92h-2.95c-7.65,0-13.92-6.27-13.92-13.92v-15.81h-15.81c-7.65,0-13.92-6.27-13.92-13.92v-2.95
	c0-7.65,6.27-13.93,13.92-13.93h15.81v-15.8c0-7.67,6.27-13.93,13.92-13.93h2.95c7.65,0,13.92,6.27,13.92,13.93v15.8h15.81
	c7.65,0,13.92,6.28,13.92,13.93V308.34z"/>
</svg>
