<?xml version="1.0" encoding="utf-8"?>
<!-- Generator: Adobe Illustrator 25.2.3, SVG Export Plug-In . SVG Version: 6.00 Build 0)  -->
<svg version="1.1" id="Layer_1" xmlns="http://www.w3.org/2000/svg" xmlns:xlink="http://www.w3.org/1999/xlink" x="0px" y="0px"
	 viewBox="0 0 330 330" style="enable-background:new 0 0 330 330;" xml:space="preserve">
<style type="text/css">
	.st0{fill:#002394;}
</style>
<g id="XMLID_18_">
	<path class="st0" d="M262.5,110l14.5,0c8.1,0,15.1-6.2,15.5-14.3c0.4-8.6-6.5-15.7-15-15.7h-25h-14.9c0,0-0.1,0-0.1-0.1V35.1
		c0-8.3-6.7-15.1-15.1-15.1H102.5c-8.3,0-15.1,6.7-15.1,15.1v44.9c0,0,0,0.1-0.1,0.1H72.5H53c-8.1,0-15.1,6.2-15.5,14.3
		c-0.4,8.6,6.5,15.7,15,15.7h15H262.5z M117.5,50h89.9c0,0,0.1,0,0.1,0.1v29.9c0,0,0,0.1-0.1,0.1h-14.9h-60h-14.9c0,0-0.1,0-0.1-0.1
		L117.5,50C117.5,50,117.5,50,117.5,50z"/>
</g>
<path class="st0" d="M162.5,141.1h-105V295c0,8.3,6.7,15,15,15h60h37.6l0,0h83.6c8.3,0,15-6.7,15-15V141.1"/>
</svg>
