<?xml version="1.0" encoding="utf-8"?>
<!-- Generator: Adobe Illustrator 25.2.3, SVG Export Plug-In . SVG Version: 6.00 Build 0)  -->
<svg version="1.1" id="Слой_2" xmlns="http://www.w3.org/2000/svg" xmlns:xlink="http://www.w3.org/1999/xlink" x="0px" y="0px"
	 viewBox="0 0 595.28 569.87" style="enable-background:new 0 0 595.28 569.87;" xml:space="preserve">
<style type="text/css">
	.st0{display:none;fill:#002394;}
	.st1{fill:#002394;}
</style>
<path class="st0" d="M42,87.2v233.54c0,33.11,26.84,59.95,59.95,59.95h233.54c33.11,0,59.95-26.84,59.95-59.95V87.2
	c0-33.11-26.84-59.95-59.95-59.95H101.95C68.84,27.26,42,54.09,42,87.2z M332.94,342.27H105.22c-13.29,0-24.07-10.78-24.07-24.07
	V90.47c0-13.29,10.78-24.07,24.07-24.07h227.72c13.29,0,24.07,10.78,24.07,24.07V318.2C357.01,331.49,346.23,342.27,332.94,342.27z"
	/>
<path class="st0" d="M494.05,185.83H475.7v39.15h15.81c13.29,0,24.07,10.78,24.07,24.07v15.64H554v-18.91
	C554,212.67,527.16,185.83,494.05,185.83z M515.58,386.56v38.47H554v-38.47H515.58z M515.58,466.73v10.04
	c0,13.29-10.78,24.07-24.07,24.07H475.7v38.42h18.35c33.11,0,59.95-26.84,59.95-59.95v-12.58H515.58z M263.79,500.84
	c-13.29,0-24.07-10.78-24.07-24.07v-10.04h-39.15v12.58c0,33.11,26.84,59.95,59.95,59.95h13.16v-38.42H263.79z M260.52,185.83
	c-33.11,0-59.95,26.84-59.95,59.95v179.25h39.15V249.05c0-13.29,10.78-24.07,24.07-24.07H434v-39.15H260.52z M315.38,500.84v38.42
	h38.45v-38.42H315.38z M395.53,500.84v38.42H434v-38.42H395.53z M515.58,306.39v38.47H554v-38.47H515.58z"/>
<path class="st1" d="M274.02,190.52v38.79c0,1.75-2.12,2.63-3.36,1.39l-62.96-62.96c-2.82-2.82-7.4-2.82-10.22,0l-16.33,16.33
	c-2.82,2.82-2.82,7.4,0,10.22l63.6,63.6c1.24,1.24,0.36,3.36-1.39,3.36h-40.06c-4,0-7.24,3.24-7.24,7.24v25.49
	c0,4,3.24,7.24,7.24,7.24h70.73h29.79c5.63,0,10.19-4.56,10.19-10.19v-29.79v-70.73c0-4-3.24-7.24-7.24-7.24h-25.49
	C277.26,183.28,274.02,186.52,274.02,190.52z"/>
<path class="st1" d="M335.48,27.26H101.95C68.84,27.26,42,54.1,42,87.21v233.53c0,33.11,26.84,59.95,59.95,59.95h233.53
	c33.11,0,59.95-26.84,59.95-59.95V87.21C395.43,54.1,368.59,27.26,335.48,27.26z M357.01,318.2c0,13.29-10.78,24.07-24.07,24.07
	H105.22c-13.29,0-24.07-10.78-24.07-24.07V90.48c0-13.29,10.78-24.07,24.07-24.07h227.72c13.29,0,24.07,10.78,24.07,24.07V318.2z"/>
<path class="st1" d="M515.58,306.39v38.47H554v-38.47H515.58z M395.53,500.84v38.42H434v-38.42H395.53z M315.38,500.84v38.42h38.45
	v-38.42H315.38z M357.01,185.83v39.15H434v-39.15H357.01z M200.57,342.27v82.76h39.15v-82.76H200.57z M263.79,500.84
	c-13.29,0-24.07-10.78-24.07-24.07v-10.04h-39.15v12.58c0,33.11,26.84,59.95,59.95,59.95h13.16v-38.42H263.79z M515.58,466.73v10.04
	c0,13.29-10.78,24.07-24.07,24.07H475.7v38.42h18.35c33.11,0,59.95-26.84,59.95-59.95v-12.58H515.58z M515.58,386.56v38.47H554
	v-38.47H515.58z M494.05,185.83H475.7v39.15h15.81c13.29,0,24.07,10.78,24.07,24.07v15.64H554v-18.91
	C554,212.67,527.16,185.83,494.05,185.83z"/>
</svg>
