<?xml version="1.0" encoding="utf-8"?>
<!-- Generator: Adobe Illustrator 25.2.3, SVG Export Plug-In . SVG Version: 6.00 Build 0)  -->
<svg version="1.1" id="Слой_2" xmlns="http://www.w3.org/2000/svg" xmlns:xlink="http://www.w3.org/1999/xlink" x="0px" y="0px"
	 viewBox="0 0 499.4 485.62" style="enable-background:new 0 0 499.4 485.62;" xml:space="preserve">
<style type="text/css">
	.st0{fill:#002394;}
</style>
<circle class="st0" cx="186.53" cy="74.29" r="29.12"/>
<path class="st0" d="M239.49,153.19v1.43c0,3.58-2.91,6.49-6.49,6.49h-93.23c-3.58,0-6.49-2.91-6.49-6.49v-1.43
	c0-16.34,7.48-31.02,19.19-40.79c2.2-1.84,5.36-1.94,7.74-0.34c7.49,5.02,16.5,7.94,26.18,7.94c9.68,0,18.69-2.92,26.18-7.94
	c2.43-1.63,5.61-1.44,7.85,0.44c1.2,1.01,2.36,2.07,3.47,3.18C233.52,125.31,239.49,138.59,239.49,153.19z"/>
<circle class="st0" cx="316.58" cy="74.29" r="29.12"/>
<path class="st0" d="M369.53,153.19v1.43c0,3.58-2.91,6.49-6.49,6.49h-93.23c-3.58,0-6.49-2.91-6.49-6.49v-1.43
	c0-16.34,7.48-31.02,19.19-40.79c2.2-1.84,5.36-1.94,7.74-0.34c7.49,5.02,16.5,7.94,26.18,7.94c9.68,0,18.69-2.92,26.18-7.94
	c2.43-1.63,5.61-1.44,7.85,0.44c1.2,1.01,2.36,2.07,3.47,3.18C363.56,125.31,369.53,138.59,369.53,153.19z"/>
<circle class="st0" cx="113.34" cy="336.35" r="29.12"/>
<path class="st0" d="M166.3,415.25v1.43c0,3.58-2.91,6.49-6.49,6.49H66.58c-3.58,0-6.49-2.91-6.49-6.49v-1.43
	c0-16.34,7.48-31.02,19.19-40.79c2.2-1.84,5.36-1.94,7.74-0.34c7.49,5.02,16.5,7.94,26.18,7.94c9.68,0,18.69-2.92,26.18-7.94
	c2.43-1.63,5.61-1.44,7.85,0.44c1.2,1.01,2.36,2.07,3.47,3.18C160.33,387.37,166.3,400.65,166.3,415.25z"/>
<circle class="st0" cx="251.39" cy="336.35" r="29.12"/>
<path class="st0" d="M304.34,415.25v1.43c0,3.58-2.91,6.49-6.49,6.49h-93.23c-3.58,0-6.49-2.91-6.49-6.49v-1.43
	c0-16.34,7.48-31.02,19.19-40.79c2.2-1.84,5.36-1.94,7.74-0.34c7.49,5.02,16.5,7.94,26.18,7.94c9.68,0,18.69-2.92,26.18-7.94
	c2.43-1.63,5.61-1.44,7.85,0.44c1.2,1.01,2.36,2.07,3.47,3.18C298.37,387.37,304.34,400.65,304.34,415.25z"/>
<circle class="st0" cx="391.13" cy="336.62" r="29.12"/>
<path class="st0" d="M444.09,415.51v1.43c0,3.58-2.91,6.49-6.49,6.49h-93.23c-3.58,0-6.49-2.91-6.49-6.49v-1.43
	c0-16.34,7.48-31.02,19.19-40.79c2.2-1.84,5.36-1.94,7.74-0.34c7.49,5.02,16.5,7.94,26.18,7.94c9.68,0,18.69-2.92,26.18-7.94
	c2.43-1.63,5.61-1.44,7.85,0.44c1.2,1.01,2.36,2.07,3.47,3.18C438.12,387.63,444.09,400.91,444.09,415.51z"/>
<path class="st0" d="M380.77,245.02H268.5c-3.3,0-5.97-2.67-5.97-5.97v-8.75c0-3.3,2.67-5.97,5.97-5.97h27.25h4.37
	c9.52,0,17.24-7.72,17.24-17.24v-4.46v-8.85c0-5.97-4.84-10.81-10.81-10.81h0c-5.97,0-10.81,4.84-10.81,10.81v4.64
	c0,2.33-1.89,4.21-4.21,4.21h-78.81c-2.33,0-4.21-1.89-4.21-4.21v-4.64c0-5.97-4.84-10.81-10.81-10.81h0
	c-5.97,0-10.81,4.84-10.81,10.81v8.85v4.46c0,9.52,7.72,17.24,17.24,17.24h4.37h26.44c3.3,0,5.97,2.67,5.97,5.97v8.75
	c0,3.3-2.67,5.97-5.97,5.97h-111.2h-4.37c-9.52,0-17.24,7.72-17.24,17.24v4.46v8.85c0,5.97,4.84,10.81,10.81,10.81h0
	c5.97,0,10.81-4.84,10.81-10.81v-3.91c0-2.73,2.21-4.94,4.94-4.94h107.76c2.47,0,4.48,2.01,4.48,4.48v4.37
	c0,5.97,4.84,10.81,10.81,10.81h0c5.97,0,10.81-4.84,10.81-10.81v-4.37c0-2.47,2.01-4.48,4.48-4.48h108.82
	c2.73,0,4.94,2.21,4.94,4.94v3.91c0,5.97,4.84,10.81,10.81,10.81h0c5.97,0,10.81-4.84,10.81-10.81v-8.85v-4.46
	c0-9.52-7.72-17.24-17.24-17.24H380.77z"/>
</svg>
