<?xml version="1.0" encoding="utf-8"?>
<!-- Generator: Adobe Illustrator 25.2.3, SVG Export Plug-In . SVG Version: 6.00 Build 0)  -->
<svg version="1.1" id="Слой_2" xmlns="http://www.w3.org/2000/svg" xmlns:xlink="http://www.w3.org/1999/xlink" x="0px" y="0px"
	 viewBox="0 0 435.06 407.49" style="enable-background:new 0 0 435.06 407.49;" xml:space="preserve">
<style type="text/css">
	.st0{fill:#002394;}
</style>
<g>
	<path class="st0" d="M238.85,46.01l-14.38-12.24c-4-3.4-9.88-3.4-13.88,0l-14.38,12.24L25.44,191.48
		c-5.81,4.95-6.51,13.67-1.56,19.48l0,0c4.95,5.81,13.68,6.51,19.49,1.56L210.59,70.08c4-3.41,9.88-3.41,13.88,0L391.7,212.53
		c5.81,4.95,14.54,4.25,19.49-1.56l0,0c4.95-5.81,4.25-14.54-1.56-19.49L238.85,46.01z"/>
	<path class="st0" d="M350.94,376.27h-89.63c-4.86,0-8.82-3.93-8.85-8.79l-0.47-71.44c-0.06-9.06-7.42-16.37-16.48-16.37h-17.97
		l-18.05,0.02c-9.1,0.01-16.47,7.39-16.46,16.49l0.04,71.24c0,4.89-3.96,8.85-8.85,8.85H84.14c-5.15,0-9.32-4.17-9.32-9.32V220.33
		c0-5.55,2.43-10.82,6.65-14.42L208.63,97.33c5.13-4.38,12.69-4.38,17.82,0L353.6,205.92c4.22,3.6,6.65,8.87,6.65,14.41l0.01,146.62
		C360.26,372.1,356.09,376.27,350.94,376.27z"/>
	<path class="st0" d="M361.9,136.56l-32.85-27.21c-0.53-0.44-0.83-1.09-0.83-1.77v-43.6c0-1.27,1.03-2.3,2.3-2.3h32.85
		c1.27,0,2.3,1.03,2.3,2.3v70.81C365.66,136.73,363.4,137.8,361.9,136.56z"/>
</g>
</svg>
