<svg width="421" height="421" viewBox="0 0 421 421" fill="none" xmlns="http://www.w3.org/2000/svg">
<rect width="421" height="421" rx="30" fill="#002394"/>
<path d="M141.488 312H111.408C107.899 312 104.891 310.872 102.384 308.616C100.128 306.109 99 303.101 99 299.592V120.992C99 117.483 100.128 114.475 102.384 111.968C104.891 109.461 107.899 108.208 111.408 108.208H141.488C144.997 108.208 147.88 109.461 150.136 111.968C152.643 114.475 153.896 117.483 153.896 120.992V222.888H124.192V286.808H128.704V227.4H153.896V299.592C153.896 303.101 152.643 306.109 150.136 308.616C147.88 310.872 144.997 312 141.488 312ZM124.192 197.696H128.704V133.4H124.192V197.696ZM243.084 312H217.892V133.4H213.38V312H188.188V133.4H183.676V312H158.484V108.208H230.676C234.186 108.208 237.068 109.461 239.324 111.968C241.831 114.224 243.084 117.107 243.084 120.616V312ZM290.199 312H260.119C256.61 312 253.602 310.872 251.095 308.616C248.839 306.109 247.711 303.101 247.711 299.592V227.4H272.903V286.808H277.415V222.888H260.119C256.61 222.888 253.602 221.635 251.095 219.128C248.839 216.621 247.711 213.613 247.711 210.104V120.992C247.711 117.483 248.839 114.475 251.095 111.968C253.602 109.461 256.61 108.208 260.119 108.208H290.199C293.708 108.208 296.591 109.461 298.847 111.968C301.354 114.475 302.607 117.483 302.607 120.992V193.184H277.415V133.4H272.903V197.696H290.199C293.708 197.696 296.591 198.949 298.847 201.456C301.354 203.712 302.607 206.595 302.607 210.104V299.592C302.607 303.101 301.354 306.109 298.847 308.616C296.591 310.872 293.708 312 290.199 312ZM307.195 312V257.104H332.387V312H307.195Z" fill="white"/>
</svg>
