<?xml version="1.0" encoding="utf-8"?>
<!-- Generator: Adobe Illustrator 25.2.3, SVG Export Plug-In . SVG Version: 6.00 Build 0)  -->
<svg version="1.1" xmlns="http://www.w3.org/2000/svg" xmlns:xlink="http://www.w3.org/1999/xlink" x="0px" y="0px"
	 viewBox="0 0 464.68 460.6" style="enable-background:new 0 0 464.68 460.6;" xml:space="preserve">
<style type="text/css">
	.st0{fill:#002394;}
	.st1{fill:none;}
</style>
<g id="Слой_2">
	<path class="st0" d="M339.3,45.32v100.77c0,9.37-7.6,16.97-16.97,16.97h0c-9.37,0-16.97-7.6-16.97-16.97V65.88
		c0-4.09-3.31-7.4-7.4-7.4H33.3V45.32c0-10.54,8.63-19.17,19.17-19.17h267.66C330.67,26.15,339.3,34.78,339.3,45.32z"/>
	<path class="st0" d="M322.33,263.66L322.33,263.66c9.37,0,16.97,7.6,16.97,16.97v101.35c0,10.54-8.63,19.17-19.17,19.17H52.47
		c-10.54,0-19.17-8.63-19.17-19.17v-13.81h264.66c4.09,0,7.4-3.31,7.4-7.4v-80.14C305.36,271.26,312.96,263.66,322.33,263.66z"/>
	<path class="st0" d="M238.24,92.17V424.5c0,2.2-0.6,4.27-1.64,6.05c-2.57,4.38-7.79,6.47-12.77,5.47L50.4,401.15l-7.22-1.45
		c-5.82-2.6-9.88-8.45-9.88-15.24V42.84c0-9.22,7.47-16.69,16.69-16.69h2.6l173.65,54.02C232.84,80.17,238.24,85.57,238.24,92.17z"
		/>
	<path class="st0" d="M436.27,200.13l-50.12-50.12c-6.56-6.56-17.3-6.56-23.86,0c-6.56,6.56-6.56,17.3,0,23.86l22.89,22.89h-96.14
		c-9.28,0-16.87,7.59-16.87,16.87c0,9.28,7.59,16.87,16.87,16.87h94.54l-21.29,21.29c-6.56,6.56-6.56,17.3,0,23.86
		s17.3,6.56,23.86,0l50.12-50.12c3.48-3.48,6.28-8.13,6.07-12.71C442.55,208.26,439.74,203.61,436.27,200.13z"/>
</g>
<g id="Слой_3">
	<path class="st1" d="M339.3,42.84v341.62c0,9.22-7.47,16.69-16.69,16.69H49.99c-2.43,0-4.73-0.52-6.81-1.45
		c-5.82-2.6-9.88-8.45-9.88-15.24V42.84c0-9.22,7.47-16.69,16.69-16.69h272.62C331.83,26.15,339.3,33.62,339.3,42.84z"/>
</g>
</svg>
