<?xml version="1.0" encoding="utf-8"?>
<!-- Generator: Adobe Illustrator 25.2.3, SVG Export Plug-In . SVG Version: 6.00 Build 0)  -->
<svg version="1.1" id="Layer_1" xmlns="http://www.w3.org/2000/svg" xmlns:xlink="http://www.w3.org/1999/xlink" x="0px" y="0px"
	 viewBox="0 0 512 512" style="enable-background:new 0 0 512 512;" xml:space="preserve">
<style type="text/css">
	.st0{fill:#002394;}
</style>
<path class="st0" d="M447.1,86.2C400.3,33.4,332.2,0,256,0C127,0,20.3,95.4,2.6,219.4C-0.2,238.7,14.8,256,34.3,256h0
	c15.9,0,29.4-11.7,31.7-27.4C79.2,135.5,159.2,64,256,64c58.5,0,110.4,26.5,145.5,67.8L370.3,163c-10.7,10.7-3.1,29,12,29H495
	c9.4,0,17-7.6,17-17V62.4c0-15.2-18.3-22.7-29-12L447.1,86.2z M256,448c-58.5,0-110.4-26.5-145.5-67.8l31.2-31.2
	c10.7-10.7,3.1-29-12-29H17c-9.4,0-17,7.6-17,17v112.6c0,15.2,18.3,22.7,29,12l35.9-35.9c46.8,52.8,115,86.2,191.1,86.2
	c129,0,235.7-95.4,253.4-219.4c2.8-19.3-12.2-36.6-31.7-36.6h0c-15.9,0-29.4,11.7-31.7,27.4C432.8,376.5,352.8,448,256,448z"/>
</svg>
