<?xml version="1.0" encoding="utf-8"?>
<!-- Generator: Adobe Illustrator 25.2.3, SVG Export Plug-In . SVG Version: 6.00 Build 0)  -->
<svg version="1.1" id="Слой_2" xmlns="http://www.w3.org/2000/svg" xmlns:xlink="http://www.w3.org/1999/xlink" x="0px" y="0px"
	 viewBox="0 0 484.09 470.81" style="enable-background:new 0 0 484.09 470.81;" xml:space="preserve">
<style type="text/css">
	.st0{fill:#002394;}
</style>
<path class="st0" d="M384.77,320.59v60.17c0,3.83-3.1,6.93-6.93,6.93H110.29c-3.83,0-6.93-3.1-6.93-6.93v-60.17
	c0-5.33-4.32-9.65-9.65-9.65H61.75c-5.33,0-9.65,4.32-9.65,9.65v67.09v23.89c0,15.12,12.26,27.37,27.37,27.37h23.88h281.41h23.88
	c15.12,0,27.37-12.26,27.37-27.37v-23.89v-67.09c0-5.33-4.32-9.65-9.65-9.65h-31.96C389.09,310.94,384.77,315.26,384.77,320.59z"/>
<path class="st0" d="M342.69,139.74L253.18,39.28c-5.41-6.08-14.93-6.03-20.28,0.11l-87.57,100.46c-7.62,8.74-1.41,22.4,10.19,22.4
	h49.56v164.79c0,8,6.49,14.49,14.49,14.49h47.83c8,0,14.49-6.49,14.49-14.49V162.25h50.71
	C344.27,162.25,350.46,148.46,342.69,139.74z"/>
</svg>
